HIERARCHY
ROOT Hips
{
	OFFSET -14.64140 90.27770 -84.91600
	CHANNELS 6 Xposition Yposition Zposition Zrotation Xrotation Yrotation
	JOINT Spine
	{
		OFFSET 0.00000 13.20850 -1.60436
		CHANNELS 3 Zrotation Xrotation Yrotation
		JOINT Spine1
		{
			OFFSET 0.00000 8.61716 0.00000
			CHANNELS 3 Zrotation Xrotation Yrotation
			JOINT Spine2
			{
				OFFSET 0.00000 8.61717 0.00000
				CHANNELS 3 Zrotation Xrotation Yrotation
				JOINT Spine3
				{
					OFFSET 0.00000 8.61717 0.00000
					CHANNELS 3 Zrotation Xrotation Yrotation
					JOINT Neck
					{
						OFFSET 0.00000 11.07920 1.10792
						CHANNELS 3 Zrotation Xrotation Yrotation
						JOINT Neck1
						{
							OFFSET 0.00000 7.08032 0.00000
							CHANNELS 3 Zrotation Xrotation Yrotation
							JOINT Head
							{
								OFFSET 0.00000 7.08031 0.00000
								CHANNELS 3 Zrotation Xrotation Yrotation
								End site
								{
									OFFSET 0.00000 0.00000 0.00000
								}
							}
						}
					}
					JOINT RightShoulder
					{
						OFFSET -0.01000 7.91373 5.19711
						CHANNELS 3 Zrotation Xrotation Yrotation
						JOINT RightArm
						{
							OFFSET -18.41580 0.00000 0.00000
							CHANNELS 3 Zrotation Xrotation Yrotation
							JOINT RightForeArm
							{
								OFFSET -29.11090 0.00000 0.00000
								CHANNELS 3 Zrotation Xrotation Yrotation
								JOINT RightHand
								{
									OFFSET -24.65040 0.00000 0.00000
									CHANNELS 3 Zrotation Xrotation Yrotation
									JOINT RightHandThumb1
									{
										OFFSET -5.35114 -0.85590 3.97906
										CHANNELS 3 Zrotation Xrotation Yrotation
										JOINT RightHandThumb2
										{
											OFFSET -4.52789 0.00000 0.00000
											CHANNELS 3 Zrotation Xrotation Yrotation
											JOINT RightHandThumb3
											{
												OFFSET -2.46976 0.00000 0.00000
												CHANNELS 3 Zrotation Xrotation Yrotation
												End site
												{
													OFFSET 0.00000 0.00000 0.00000
												}
											}
										}
									}
									JOINT RightHandIndex1
									{
										OFFSET -14.26970 0.00000 2.88139
										CHANNELS 3 Zrotation Xrotation Yrotation
										JOINT RightHandIndex2
										{
											OFFSET -5.48836 0.00000 0.00000
											CHANNELS 3 Zrotation Xrotation Yrotation
											JOINT RightHandIndex3
											{
												OFFSET -3.01859 0.00000 0.00000
												CHANNELS 3 Zrotation Xrotation Yrotation
												End site
												{
													OFFSET 0.00000 0.00000 0.00000
												}
											}
										}
									}
									JOINT RightHandMiddle1
									{
										OFFSET -14.26970 0.00000 -0.09147
										CHANNELS 3 Zrotation Xrotation Yrotation
										JOINT RightHandMiddle2
										{
											OFFSET -6.17441 0.00000 0.00000
											CHANNELS 3 Zrotation Xrotation Yrotation
											JOINT RightHandMiddle3
											{
												OFFSET -3.56743 0.00000 0.00000
												CHANNELS 3 Zrotation Xrotation Yrotation
												End site
												{
													OFFSET 0.00000 0.00000 0.00000
												}
											}
										}
									}
									JOINT RightHandRing1
									{
										OFFSET -12.69180 0.00000 -3.06433
										CHANNELS 3 Zrotation Xrotation Yrotation
										JOINT RightHandRing2
										{
											OFFSET -5.62556 0.00000 0.00000
											CHANNELS 3 Zrotation Xrotation Yrotation
											JOINT RightHandRing3
											{
												OFFSET -3.56744 0.00000 0.00000
												CHANNELS 3 Zrotation Xrotation Yrotation
												End site
												{
													OFFSET 0.00000 0.00000 0.00000
												}
											}
										}
									}
									JOINT RightHandPinky1
									{
										OFFSET -11.11390 0.00000 -6.03719
										CHANNELS 3 Zrotation Xrotation Yrotation
										JOINT RightHandPinky2
										{
											OFFSET -4.52789 0.00000 0.00000
											CHANNELS 3 Zrotation Xrotation Yrotation
											JOINT RightHandPinky3
											{
												OFFSET -2.46976 0.00000 0.00000
												CHANNELS 3 Zrotation Xrotation Yrotation
												End site
												{
													OFFSET 0.00000 0.00000 0.00000
												}
											}
										}
									}
								}
							}
						}
					}
					JOINT LeftShoulder
					{
						OFFSET 0.01000 7.91373 5.19711
						CHANNELS 3 Zrotation Xrotation Yrotation
						JOINT LeftArm
						{
							OFFSET 18.41580 0.00000 0.00000
							CHANNELS 3 Zrotation Xrotation Yrotation
							JOINT LeftForeArm
							{
								OFFSET 29.11090 0.00000 0.00000
								CHANNELS 3 Zrotation Xrotation Yrotation
								JOINT LeftHand
								{
									OFFSET 24.65040 0.00000 0.00000
									CHANNELS 3 Zrotation Xrotation Yrotation
									JOINT LeftHandThumb1
									{
										OFFSET 5.35114 -0.85590 3.97906
										CHANNELS 3 Zrotation Xrotation Yrotation
										JOINT LeftHandThumb2
										{
											OFFSET 4.52789 0.00000 0.00000
											CHANNELS 3 Zrotation Xrotation Yrotation
											JOINT LeftHandThumb3
											{
												OFFSET 2.46977 0.00000 0.00000
												CHANNELS 3 Zrotation Xrotation Yrotation
												End site
												{
													OFFSET 0.00000 0.00000 0.00000
												}
											}
										}
									}
									JOINT LeftHandIndex1
									{
										OFFSET 14.26970 0.00000 2.88139
										CHANNELS 3 Zrotation Xrotation Yrotation
										JOINT LeftHandIndex2
										{
											OFFSET 5.48836 0.00000 0.00000
											CHANNELS 3 Zrotation Xrotation Yrotation
											JOINT LeftHandIndex3
											{
												OFFSET 3.01859 0.00000 0.00000
												CHANNELS 3 Zrotation Xrotation Yrotation
												End site
												{
													OFFSET 0.00000 0.00000 0.00000
												}
											}
										}
									}
									JOINT LeftHandMiddle1
									{
										OFFSET 14.26970 0.00000 -0.09147
										CHANNELS 3 Zrotation Xrotation Yrotation
										JOINT LeftHandMiddle2
										{
											OFFSET 6.17440 0.00000 0.00000
											CHANNELS 3 Zrotation Xrotation Yrotation
											JOINT LeftHandMiddle3
											{
												OFFSET 3.56744 0.00000 0.00000
												CHANNELS 3 Zrotation Xrotation Yrotation
												End site
												{
													OFFSET 0.00000 0.00000 0.00000
												}
											}
										}
									}
									JOINT LeftHandRing1
									{
										OFFSET 12.69180 0.00000 -3.06433
										CHANNELS 3 Zrotation Xrotation Yrotation
										JOINT LeftHandRing2
										{
											OFFSET 5.62556 0.00000 0.00000
											CHANNELS 3 Zrotation Xrotation Yrotation
											JOINT LeftHandRing3
											{
												OFFSET 3.56744 0.00000 0.00000
												CHANNELS 3 Zrotation Xrotation Yrotation
												End site
												{
													OFFSET 0.00000 0.00000 0.00000
												}
											}
										}
									}
									JOINT LeftHandPinky1
									{
										OFFSET 11.11390 0.00000 -6.03719
										CHANNELS 3 Zrotation Xrotation Yrotation
										JOINT LeftHandPinky2
										{
											OFFSET 4.52789 0.00000 0.00000
											CHANNELS 3 Zrotation Xrotation Yrotation
											JOINT LeftHandPinky3
											{
												OFFSET 2.46976 0.00000 0.00000
												CHANNELS 3 Zrotation Xrotation Yrotation
												End site
												{
													OFFSET 0.00000 0.00000 0.00000
												}
											}
										}
									}
								}
							}
						}
					}
					JOINT pCube4
					{
						OFFSET 0.00000 10.91090 1.10792
						CHANNELS 3 Zrotation Xrotation Yrotation
						End site
						{
							OFFSET 0.00000 0.00000 0.00000
						}
					}
				}
			}
		}
	}
	JOINT RightUpLeg
	{
		OFFSET -9.98441 0.00000 0.00000
		CHANNELS 3 Zrotation Xrotation Yrotation
		JOINT RightLeg
		{
			OFFSET 0.00000 -42.11790 0.00000
			CHANNELS 3 Zrotation Xrotation Yrotation
			JOINT RightFoot
			{
				OFFSET 0.00000 -45.00020 -0.00001
				CHANNELS 3 Zrotation Xrotation Yrotation
				JOINT RightForeFoot
				{
					OFFSET 0.00000 -3.74820 0.00000
					CHANNELS 3 Zrotation Xrotation Yrotation
					JOINT RightToeBase
					{
						OFFSET 0.00000 0.06325 14.43120
						CHANNELS 3 Zrotation Xrotation Yrotation
						End site
						{
							OFFSET 0.00000 0.00000 0.00000
						}
					}
				}
			}
		}
	}
	JOINT LeftUpLeg
	{
		OFFSET 9.98441 0.00000 0.00000
		CHANNELS 3 Zrotation Xrotation Yrotation
		JOINT LeftLeg
		{
			OFFSET 0.00000 -42.11800 0.00000
			CHANNELS 3 Zrotation Xrotation Yrotation
			JOINT LeftFoot
			{
				OFFSET 0.00000 -45.00070 0.00000
				CHANNELS 3 Zrotation Xrotation Yrotation
				JOINT LeftForeFoot
				{
					OFFSET 0.00000 -3.74824 0.00000
					CHANNELS 3 Zrotation Xrotation Yrotation
					JOINT LeftToeBase
					{
						OFFSET 0.00000 0.06325 14.43110
						CHANNELS 3 Zrotation Xrotation Yrotation
						End site
						{
							OFFSET 0.00000 0.00000 0.00000
						}
					}
				}
			}
		}
	}
}
MOTION
Frames: 4
Frame Time: 0.050000
-0.02603272235698873 -0.007848004121261895 -0.011093635161053538 0.027196418098422825 0.0052658020667385366 0.022031864303735688 -1.4000055464605945 0.798036205982367 -1.1848621789813025 -0.15205592590447356 3.779759919914567 0.2443216014512753 -0.6243488968206059 -1.9173621609189748 0.5543844787959696 -1.118977868365897 -1.254286986478687 -0.4360688940351651 -0.4219720345306193 12.17630286036699 -0.5380401905887352 0.635148805987956 -1.447336327467103 -1.7883141324336467 0.9375456442451537 -17.244689396124123 -0.2212403460327043 0.053972933310524704 0.725487582137508 -14.766548911674231 74.07206183647897 7.810949235011167 3.924518767225466 28.26047527643051 16.2190175639629 101.86490232537561 27.665883540206792 -0.28436596069518083 -5.190130353170819 4.57244831324909 -0.12283898415410924 -1.635854183022841 -0.012058775676418871 -0.017431981970032023 -56.192098754495355 -0.03577173017897733 -0.0035204985694111 -56.24140378944927 -38.797571308653026 0.006648506958037227 -0.013173027683494896 0.009585376130916864 -0.047443717614434326 -0.00953537811001659 -0.018975808104674557 -0.004945670243942807 0.0011202592941570617 -36.7276943062871 -0.016725138142402018 0.017517810880825047 0.024547130000575266 0.01794648230879339 0.0060358328016116725 -0.017414288439898274 0.042615050347153044 0.002583376118602132 -19.748827864756336 -0.022081400579085343 0.013298358094384757 0.031121142530103372 -0.016277420104955972 -0.009911317016667953 0.016383285129068118 -0.0015853873684087156 0.04490941840243577 24.03294324602833 -0.002988796471072656 0.04722154527672909 28.828323180618536 -0.04552084867509523 -0.019668502474739905 28.85546992306603 0.015043173238321597 0.046510477755214386 4.377612903121649 1.4524640570399592 13.89824602337272 -79.3017102747564 13.714879610290078 -10.145596977035167 -62.20703604017331 23.181781835996684 -108.81922630678488 -29.580563004856167 3.675683368028976 -1.4626539405138814 -0.4511657086006573 0.03413369397129098 -8.133173277726332 0.044232535243111444 -0.014657265165473832 44.58461839453928 -0.01796432156279164 -0.0439254739652636 44.55916693723799 12.506250140907493 -0.006535120855700815 -0.049301686893337804 0.007225915487406183 -0.00560529559009797 -0.008415131297891412 0.04022576680774089 0.043544848171451635 -0.005923030780552212 11.0780956630958 -0.029469429462730456 0.008079910005639679 0.03719604556953066 0.0078094256794007215 -0.035348813961313626 -0.02904741492284322 0.009779916334538502 0.0074077591870378625 4.770558088894165 -0.009584890860627178 -0.03041996623832431 0.03615809030643974 0.036310747785337265 0.035733072657414704 -0.023929902112490423 0.013429688651428696 0.029812101813202794 -5.568383390723393 -0.046295547545552054 -0.033569515444973795 -6.7220073940164955 0.028799955502341566 -0.026066165210178797 -6.743416723584202 0.036085060200553104 -0.035040327074157954 -0.0022229841543871384 -0.01201701122132258 0.02728984500504411 8.082390833933072 3.5112963857186448 -19.232103758285486 0.003909714924219787 10.372353622517657 -0.03205949336910641 -5.610450492690816 -15.633968437900641 3.211710883111772 -0.0219166436246778 -0.00020136332568509912 -0.02056194276571596 -0.02611448990054114 4.6695099905021245 0.015458767337077123 12.493887531924965 -8.211068077162597 6.83848147843085 0.043173442923372225 46.42106136448424 0.029125316056468262 -4.305522893484455 -14.73171635454174 -3.847300243394894 0.02833938266116322 -0.004728518478024682 0.0023618219269565628 0.021369789616671207 -10.74001926787602 0.033691692272906915 
0.017749311589444643 -0.03434981508311951 -0.007869791171308189 -0.009270324586953486 -0.04717147609198952 -0.025276714762998295 -1.4679298695652523 1.042089655690309 -1.1626850642952018 -0.16523012910632048 3.779060836947153 0.30845027472055675 -0.6189073382420277 -1.8628654566791372 0.5781931492817377 -1.0981216708847372 -1.2319681530435245 -0.4361033650015441 -0.4935564506598517 12.061567071427861 -0.3406751224733429 0.6066568819867871 -1.4361628556937314 -1.4711100818000178 0.9010396349204003 -17.244769465558424 -0.21544270679453698 0.30947655577559463 0.6820526084498985 -14.576097961095032 73.76192886404462 8.218186445237043 3.791586549672636 25.67230520831852 16.40724180721464 100.228731492801 27.79612029279501 -0.28578703710401065 -4.888357195236939 4.513507351076248 -0.13928475430558707 -1.568458365564124 9.420365740585255e-05 0.021752382805032555 -56.206338335049004 0.043454458826575504 0.009955235961274006 -56.19200509030968 -38.816189778136625 -0.009203695755540307 -0.013594554624374257 0.014037740943050056 -0.04237230197889327 -0.011948699816474513 -0.019561659095290583 0.018244716367629654 0.01950685484713208 -36.71790222685935 0.004066458192425246 0.03017746754429302 -0.012980122932592274 -0.028464719035005387 0.01268497945834947 0.031451616952712126 0.015747068817590318 -0.03560769759470054 -19.776554702937414 -0.010040055380499511 -0.004227703320611468 -0.01060230436457755 0.024235454986094272 -0.035392902509052165 -0.04911814040732065 -0.045169345900480225 -0.012018578249501576 24.05892349643718 0.04854117586649793 0.04153729718296272 28.85653219717136 0.020006713899390186 0.015626903798786757 28.859202574090283 0.04325725573389126 -0.042177534900263484 4.181777019747766 1.3713058186164702 13.84078109049492 -78.8126283735236 14.548102922100096 -10.042172554004905 -58.03078127603848 22.81823197131716 -106.07883232446216 -30.325207898402283 2.9150999556305526 -0.8990948977755822 -0.5121904387217774 0.08204717025348687 -8.101623445186195 0.03051574092075229 0.03317697483154342 44.58153455667531 0.025590105800724048 0.00866589469531987 44.54286595166843 12.496842390260822 0.023414115831509902 -0.00383833646634446 0.005591324528087996 -0.03764054783974789 0.023036880599699026 0.005844469815576542 0.034268931523935474 0.04155234833124658 11.150860217993838 0.02860857054763281 -0.022307631806597374 0.0201061834654177 -0.03740148742377986 -0.02384748226521173 -0.0324218027789844 -0.04867006389090136 0.049722024816949845 4.767356480783054 -0.0036158577797545943 -0.005452162719250279 -0.025772152357731778 -0.023433760024706683 0.0036748100346610255 0.03417161349746597 -0.01732244913622082 -0.02235196561769094 -5.612345695962918 -0.012761752209314378 0.02266795053802018 -6.71405613235558 0.038742010611071236 0.028968519531775525 -6.723083108919746 0.02359723701944363 -0.04252476889976212 0.02675195508825161 -0.03751858243443159 0.02743696192217405 8.085305806004035 3.5208216531857977 -19.268832989463895 0.033083951413401765 10.40224622191807 -0.0012588696062458358 -5.611287747748307 -15.652918356528316 3.236380154942551 -0.04893148593381115 -0.019887419970357496 0.012408815030112584 0.03137200948814914 4.723765127164202 0.014291498157515799 12.495097598316306 -8.282394206960472 6.886183901872205 0.04817835850342786 46.382001342133485 -0.029155959010115955 -4.328395729373437 -14.770182864529303 -3.8028442040353334 0.015185506017198114 0.018754038107924212 0.037843754987721794 0.028642516766844154 -10.748880153767013 0.026016901573764867 
0.030518191496101788 0.0004886320975878507 0.03360850919810374 0.0033486591889770874 -0.011351144110239183 -0.04798545576529714 -1.205406574968881 1.2152966221727806 -1.269909346107048 -0.2280411036451753 3.755356633397596 0.23673477702766388 -0.5618458774779213 -1.7440449936131077 0.5490411130990549 -1.098200150687751 -1.116923514191785 -0.4339789496954993 -0.5497655024087875 11.910743770202822 -0.25488777173015276 0.5593224201953171 -1.4090094473108505 -1.138485432184485 0.8361502886855963 -17.244152871834654 -0.11804047264226017 0.08354363612272554 0.7696944359941497 -14.636675846099498 73.90588880939642 9.318677878906911 3.0544804911110837 22.854846815868353 16.344886377220863 97.32227535073993 27.746234649967796 -0.32815147146561646 -4.869557484784094 4.537790545619694 -0.11849167174255104 -1.625470729655174 -0.04144647323708259 0.012251908468928688 -56.22645607719498 0.028886371027649092 -0.006122083606727241 -56.254345200271736 -38.75503424946262 0.02780394510060272 0.0023995083444743495 0.003575115780629137 0.007413539797557709 0.03288185841558939 0.0033189369709976367 0.03493042138798205 0.03692862598243378 -36.710463383350834 -0.0024052814242353526 -0.03110525931859176 -0.003157887936823901 0.011625608812422326 0.010400956203687995 0.03967309541294401 0.0009886751157236813 -0.04872803390735271 -19.71023421072564 -0.014411134369861503 0.018071160754671994 -0.031393712690311 0.0028943710102910932 -0.014943494403165582 -0.006070638861673478 0.013454247544185534 -0.017247515000057275 24.087367574790267 0.027332392449572994 -0.02558161347652855 28.836156881647067 0.0017774239226476616 0.034691412207132684 28.83584660930735 0.018815988492535397 0.008421194680127433 4.252161758906916 1.4630289965320518 13.73512491319392 -78.12724291776733 15.935934733247786 -10.065744716297473 -53.57923868744643 21.979287035780217 -102.74223300814225 -30.97878095010903 1.2712691685233737 0.4083882833222409 -0.4282688231415252 0.03125939713826233 -8.142424280430818 0.026274445110146576 0.042877307559408884 44.571436939806574 -0.006698669908433066 0.042108048198606654 44.53781073573715 12.451802103651945 0.018693901805308014 -0.020946750381167754 -0.045760464627914534 -0.044405019674016395 -0.021539296202028883 -0.021407860393023496 -0.015440258500217172 0.024345483082523406 11.12214444262253 0.031107342877421056 0.004545798419694553 -0.018954945094215237 -0.04263373667480592 0.031775630011967156 -0.015860617892954853 0.005834196582367684 -0.04504002453934314 4.812040605039905 0.02606525064046045 -0.03498489094664754 -0.015908388942894376 0.01973704526200691 0.035454229472774164 -0.00536023354921531 0.023291522135954038 -0.0011941185586914558 -5.631764594279689 -0.026249902718041028 -0.0167068051358695 -6.744733340379877 -0.0017201972335171923 -0.0162171087681989 -6.76974168181134 0.01968499626987261 0.014761649511838828 0.025148656957104238 -0.028455537876016592 -0.03093997783925194 8.072904288637014 3.5038933320060197 -19.189080041866777 -0.017993554125266594 10.356998896201945 0.04331783142944282 -5.635607014022017 -15.635480306068287 3.1574462368587257 0.015238525327764695 -0.03295735146519209 -0.019142196841038683 0.03214853390581458 4.741803047261883 0.03459208356641308 12.415504301468582 -8.26093723618425 6.851004673876917 0.022709986125417296 46.388364433018566 -0.03100580612357163 -4.350763757091592 -14.781206046024755 -3.8012581108668626 0.022625949769305473 0.04185419806665144 -0.043089386201499276 -0.023286718213330657 -10.706367341924567 0.03242556653462973 
-0.023047130471543574 0.003583718073858807 0.018498811068678195 -0.0363826332639803 -0.03464674966563695 -0.009163107167802107 -0.5322959017691736 1.429164371553225 -1.352756492841035 -0.28798555124936304 3.752536810085852 0.3172056965625648 -0.5282592045418304 -1.6755114002826352 0.544213989476798 -1.0660120155547943 -1.0573788189975117 -0.4320685213005879 -0.5446901850795991 11.759159491337275 -0.17842226225111005 0.5109023793719557 -1.3111294703594023 -0.8283581535774389 0.7721841574794719 -17.10170667242696 -0.17010009524281844 -0.4802602484261478 0.906925341217036 -14.807821219651055 74.51816624791803 10.582676501662426 2.2075654473806394 20.724748315979234 15.706273121128419 94.44894285483164 27.022423805455702 -0.25063135239479517 -5.0598703500589854 4.516125843322155 -0.10689622743398099 -1.608959483924813 -0.011467053928373518 0.0002603078533947031 -56.208271159872574 0.04852019121357371 0.0015673327083137953 -56.20978490147667 -38.79302120547309 -0.02327448435245351 -0.010968321925504157 0.015550145765404323 0.017263294750709663 0.024288087575293528 0.010009336772673107 -0.030411846910033583 0.030465953931391676 -36.66394737101507 0.007053461025756562 0.0028294390563014305 0.01323167640731316 0.024574815360174865 0.026922040979348603 0.02216422500283561 0.0015782821052757318 0.0431052595259233 -19.80822086008745 -0.028489145319902095 0.00879628527615073 0.019599238896375073 -0.008220641052939306 -0.028775975824140723 0.00643983964060003 -0.03908761554404297 0.042265695700676134 24.05678234392829 -0.045645227713909914 -0.007405190280797856 28.85711873405767 0.04219240940253705 0.014238512235188898 28.830109511733067 -0.02527340407670688 0.006117260804024483 4.744162947137161 1.5189514347840756 13.752356091740406 -77.5208325772428 17.80172378467072 -10.267856264411595 -49.88296698890643 20.323748377175733 -99.88179137009848 -30.815807060157795 -1.2999118388627733 2.458654235918199 -0.4490794215633815 0.04938296564415623 -8.094932039676797 -0.044426074730671554 -0.0195041206646098 44.56299822875817 -0.04272843828583388 0.009622210110743375 44.54107278106758 12.482396823759524 0.01052634688706906 -0.015378378355112875 -0.027172941878176156 -0.0017216721245678136 0.04808914181625205 0.014248501557909642 0.03262862481018394 -0.02653560322831467 11.143002671697232 0.01955936221859453 -0.0391079148791138 -0.03470059527306421 -0.006320278867514423 -0.025109052297849526 -0.011771729571170708 0.04308381850291546 0.04152560446772222 4.7854986341829 0.048450349077482524 0.0481155745920142 -0.03583301811881511 0.007763270753183653 -0.01641723746849809 0.04534881871913381 0.001435543776101987 0.001064489646219406 -5.612587580992922 0.041040637470726206 -0.04020980490935304 -6.692703570662589 -0.04771386662116424 0.03184877447783827 -6.671633531525099 0.0296711813403879 -0.0037156731094385082 0.016220527913367793 -0.035171386441896504 -0.01616984619442095 8.019843951118434 3.517268626993481 -19.20569061696411 -0.03310565923696173 10.408677207467987 0.00033202555508381713 -5.662682778854257 -15.616054370793309 3.194042416902513 -0.009364142547080814 -0.005621695207949535 0.021960003075433762 -0.037867510672354686 4.663724247544606 -0.043940206987646974 12.425209054288713 -8.253962929380043 6.91177664071466 -0.011405050084083853 46.38792975554776 -0.014667144463173729 -4.303174303937545 -14.71729607849277 -3.811899474659576 -0.0383259534313861 -0.044741359561478795 -0.005498615481339132 0.01686717910595742 -10.695820081124642 -0.02766915937263814 
